<?xml version="1.0" encoding="UTF-8"?>
<svg version="1.1" xmlns="http://www.w3.org/2000/svg" width="265" height="276">
<path d="M0 0 C0.6936113 -0.00832352 1.3872226 -0.01664703 2.10185242 -0.02522278 C4.38159916 -0.04919872 6.66105873 -0.05808161 8.94091797 -0.06469727 C10.54027383 -0.07367644 12.13962889 -0.0827985 13.73898315 -0.09205627 C17.08951855 -0.10851762 20.43995442 -0.11624056 23.79052734 -0.11914062 C28.05387549 -0.12450664 32.31626814 -0.16212409 36.57934761 -0.20788479 C39.88423953 -0.23784896 43.18890733 -0.24486842 46.49392319 -0.24586678 C48.0638044 -0.25003458 49.63368846 -0.26232823 51.20343399 -0.28338432 C63.31375993 -0.43283759 73.38940732 1.04701253 82.74560547 9.43139648 C90.75235778 18.15018304 92.92561278 27.76091864 92.94181824 39.35165405 C92.94408379 40.02507107 92.94634935 40.69848809 92.94868356 41.39231169 C92.95497096 43.62980443 92.95419761 45.86723578 92.95336914 48.10473633 C92.95636389 49.71676206 92.95976715 51.32878708 92.96354675 52.94081116 C92.97235811 57.30656803 92.97472364 61.67230529 92.97536254 66.0380702 C92.97607459 68.76875607 92.97821183 71.49943698 92.98085976 74.23012161 C92.99010322 83.7653154 92.99419583 93.30049524 92.9934082 102.83569336 C92.99280746 111.71013141 93.00336122 120.58450866 93.01915187 129.45893133 C93.03224511 137.09057537 93.03759136 144.72219959 93.03695279 152.35385478 C93.03669836 156.90641013 93.0395194 161.45891141 93.05013084 166.01145554 C93.05984206 170.29441852 93.05987034 174.57727605 93.05261421 178.86024284 C93.05157217 180.4271008 93.05390853 181.99396543 93.05997467 183.560812 C93.1074024 196.66552244 92.26377883 207.59545331 83.55810547 217.99389648 C75.7621321 224.54960137 69.00164325 228.53356067 58.58447266 228.59692383 C57.88764877 228.60364105 57.19082489 228.61035828 56.47288513 228.61727905 C54.18350974 228.63617829 51.89442889 228.64017942 49.60498047 228.64233398 C48.00083296 228.64876867 46.39668661 228.65549752 44.7925415 228.6625061 C41.4336068 228.67445952 38.07477478 228.67818904 34.71582031 228.67700195 C30.43447234 228.67679914 26.15379092 228.70407081 21.87260056 228.73854637 C18.55921471 228.76090626 15.2459868 228.76483669 11.93253326 228.7637825 C10.35543782 228.76612598 8.77833717 228.77487803 7.20131683 228.79044724 C-4.40306606 228.89426717 -15.42499356 227.79395992 -24.19189453 219.30639648 C-31.85005739 209.7156312 -34.34316001 200.46926871 -34.35986328 188.36499023 C-34.36319168 187.51969254 -34.36652008 186.67439484 -34.36994934 185.80348206 C-34.37499176 184.02426698 -34.3773585 182.24504253 -34.37719727 180.46582031 C-34.37939032 177.74910974 -34.39759231 175.03280134 -34.41650391 172.31616211 C-34.41943711 170.58243953 -34.42142239 168.84871504 -34.42236328 167.11499023 C-34.4295488 166.3065416 -34.43673431 165.49809296 -34.44413757 164.66514587 C-34.42004835 158.70619737 -33.7688907 154.99603524 -29.56689453 150.49389648 C-26.49232985 148.124232 -23.99417964 147.62305361 -20.15283203 147.88061523 C-16.29324945 148.71865209 -13.3532825 150.69782451 -11.04931641 153.88891602 C-9.72416178 157.6251578 -9.87300745 161.29972415 -9.84814453 165.23608398 C-9.83352173 166.10403595 -9.81889893 166.97198792 -9.80383301 167.86624146 C-9.7573931 170.63791317 -9.72316902 173.40951467 -9.69189453 176.18139648 C-9.65062832 179.82488584 -9.59688829 183.46788176 -9.53564453 187.11108398 C-9.53036743 187.94251923 -9.52509033 188.77395447 -9.51965332 189.63058472 C-9.44271817 194.14694362 -9.35229065 198.23578 -7.19189453 202.30639648 C-3.05085785 204.06107225 0.5234741 204.55842577 4.99365234 204.56518555 C6.79582214 204.57464203 6.79582214 204.57464203 8.63439941 204.58428955 C10.56116516 204.57821686 10.56116516 204.57821686 12.52685547 204.57202148 C13.87154205 204.57337057 15.21622816 204.57531314 16.56091309 204.57781982 C19.3717109 204.58075963 22.18238114 204.57651045 24.99316406 204.56713867 C28.58419706 204.5557447 32.17493102 204.56231033 35.76595306 204.5742836 C38.54044827 204.58153322 41.31487334 204.57920008 44.08937073 204.57402802 C46.05351965 204.57205744 48.01767137 204.57809906 49.98181152 204.58428955 C51.18325806 204.57798523 52.38470459 204.57168091 53.62255859 204.56518555 C55.20091492 204.56279877 55.20091492 204.56279877 56.81115723 204.56036377 C60.18301651 204.27462579 62.74199325 203.75785544 65.80810547 202.30639648 C67.93484744 198.34617883 68.0593142 194.87245338 68.06207275 190.43003845 C68.06519274 189.7507189 68.06831272 189.07139935 68.07152724 188.37149435 C68.07948495 186.10222878 68.07319244 183.83323227 68.06689453 181.56396484 C68.06960536 179.93426863 68.07316681 178.30457365 68.07751465 176.67488098 C68.08662926 172.25353131 68.0830984 167.83227502 68.07675648 163.41092372 C68.07169256 158.78432765 68.07638894 154.15773957 68.07952881 149.53114319 C68.08316694 141.76277226 68.07837297 133.99443937 68.06884766 126.22607422 C68.05795957 117.24250968 68.06149187 108.25903589 68.07250047 99.27547354 C68.08157312 91.56326423 68.08285884 83.85108226 68.07762313 76.13886935 C68.0745038 71.53223562 68.07409315 66.92564458 68.08069611 62.3190136 C68.08646874 57.98929909 68.08247418 53.65970176 68.07090759 49.32999992 C68.06826073 47.74008377 68.06902655 46.15015777 68.07343292 44.56024551 C68.07888873 42.39195368 68.0720541 40.22403863 68.06207275 38.05577087 C68.0613187 36.84181106 68.06056465 35.62785124 68.05978775 34.37710476 C67.81564593 31.39839562 67.48275047 29.75038954 65.80810547 27.30639648 C61.66998763 24.69855953 58.47337404 23.92921595 53.62255859 23.91821289 C52.42111206 23.90875641 51.21966553 23.89929993 49.98181152 23.88955688 C48.05504578 23.89866592 48.05504578 23.89866592 46.08935547 23.90795898 C44.74466799 23.90593535 43.39998159 23.90302151 42.05529785 23.89926147 C39.24444067 23.89485167 36.43387054 23.90122533 33.62304688 23.9152832 C30.03188474 23.93237477 26.44139537 23.92252629 22.85025787 23.90456581 C20.07573437 23.89369128 17.30136864 23.897191 14.52684021 23.90494919 C12.5626888 23.90790506 10.5985311 23.89884258 8.63439941 23.88955688 C7.43295288 23.89901337 6.23150635 23.90846985 4.99365234 23.91821289 C3.94141479 23.92059967 2.88917725 23.92298645 1.80505371 23.92544556 C-1.77904084 24.38103038 -4.1398354 25.38299244 -7.19189453 27.30639648 C-9.0879045 29.9987366 -9.44143164 32.17849401 -9.44726562 35.42895508 C-9.45770401 36.63072891 -9.45770401 36.63072891 -9.46835327 37.85678101 C-9.46735626 38.71413849 -9.46635925 39.57149597 -9.46533203 40.45483398 C-9.48562185 42.2829651 -9.50647265 44.11109005 -9.52783203 45.93920898 C-9.55041881 48.81165776 -9.56689956 51.68386301 -9.57275391 54.55639648 C-9.58229748 57.33548641 -9.61609615 60.11348878 -9.65283203 62.89233398 C-9.64778656 63.74564301 -9.64274109 64.59895203 -9.63754272 65.4781189 C-9.726378 70.88654816 -10.56509222 74.03497548 -14.19189453 78.30639648 C-17.3017566 80.37963786 -18.0829784 80.58031835 -21.62939453 80.55639648 C-22.39123047 80.56155273 -23.15306641 80.56670898 -23.93798828 80.57202148 C-27.42626087 80.16092523 -29.54061916 79.03003578 -31.87939453 76.43139648 C-34.7349321 71.80814519 -34.36771603 66.80431447 -34.39501953 61.51733398 C-34.4007196 60.65886871 -34.40641968 59.80040344 -34.41229248 58.91592407 C-34.42172936 57.09866563 -34.42827125 55.28139018 -34.43212891 53.46411133 C-34.4417871 50.71200795 -34.47280291 47.96066698 -34.50439453 45.20874023 C-34.58938955 31.24675951 -33.26588948 20.52752575 -23.87939453 9.61889648 C-16.62138446 3.37363201 -9.71346694 0.08285719 0 0 Z " fill="#FEFEFE" transform="translate(151.19189453125,21.693603515625)"/>
<path d="M0 0 C3.65138161 2.1299726 5.40480914 4.14318299 7 8 C7.41785146 11.899947 6.97061439 15.59402838 4.71435547 18.86230469 C4.16666504 19.45946289 3.61897461 20.05662109 3.0546875 20.671875 C2.42473877 21.35991211 1.79479004 22.04794922 1.14575195 22.75683594 C-2.81931724 26.90190998 -6.86146083 30.96425627 -10.9375 35 C-11.81212891 35.87011719 -12.68675781 36.74023438 -13.58789062 37.63671875 C-15.72297449 39.76013549 -17.86037205 41.88116378 -20 44 C-19.32615989 44.00146656 -18.65231977 44.00293312 -17.95806026 44.00444412 C-1.54880156 44.04152399 14.86021723 44.10055417 31.26930332 44.18390274 C39.2046854 44.22368259 47.13996847 44.25608039 55.07543945 44.27099609 C61.9934167 44.28401813 68.91117597 44.3109967 75.82903045 44.35461307 C79.49076049 44.37721573 83.15222181 44.39291142 86.81402779 44.39188385 C90.9057044 44.3909975 94.99658967 44.4212748 99.08813477 44.45410156 C100.9018306 44.44655602 100.9018306 44.44655602 102.75216675 44.43885803 C109.37621851 44.52112164 113.63523121 44.99180053 119 49 C121.64930485 52.34042786 121.3625472 55.86696196 121 60 C119.32375739 63.68773373 117.42746406 65.85783496 114 68 C110.95005992 69.01664669 108.85954767 69.136826 105.66596985 69.15821838 C104.00640259 69.17290161 104.00640259 69.17290161 102.31330872 69.18788147 C101.0991478 69.19363693 99.88498688 69.1993924 98.6340332 69.20532227 C97.35587738 69.21522186 96.07772156 69.22512146 94.76083374 69.23532104 C91.25494487 69.2623642 87.74904255 69.28337694 84.24310708 69.30332303 C80.57954216 69.32518621 76.91601867 69.35257328 73.25248718 69.37937927 C66.31462177 69.42930166 59.37673335 69.47424217 52.43882293 69.51740164 C44.54044826 69.56677789 36.64211518 69.62169458 28.74378073 69.67708123 C12.49589215 69.79089431 -3.75203455 69.89773482 -20 70 C-19.21761963 70.77190674 -18.43523926 71.54381348 -17.62915039 72.33911133 C-14.72988767 75.202195 -11.83723169 78.07187536 -8.9465332 80.94360352 C-7.69409762 82.18597677 -6.43987351 83.4265497 -5.18383789 84.6652832 C-3.37954924 86.44533408 -1.58177533 88.23174386 0.21484375 90.01953125 C0.77840073 90.57276566 1.3419577 91.12600006 1.92259216 91.69599915 C5.4565058 95.22888708 6.83774767 97.28012528 7.3125 102.3125 C6.94050629 106.7020258 5.80652364 108.64776343 3 112 C-0.00904985 114.36425345 -3.1442822 114.26615441 -6.90234375 114.36328125 C-11.80159398 113.51480775 -15.24729736 110.00454194 -18.65087891 106.60791016 C-19.54175201 105.72334137 -20.43262512 104.83877258 -21.35049438 103.92739868 C-22.30943889 102.96487407 -23.26812197 102.00208895 -24.2265625 101.0390625 C-25.22084877 100.04612498 -26.21543164 99.05348439 -27.21029663 98.06112671 C-29.28962354 95.98474118 -31.36530864 93.90480008 -33.43847656 91.82226562 C-36.08908234 89.16026596 -38.74856638 86.50734667 -41.41085243 83.85703468 C-43.4648647 81.81026766 -45.5140672 79.75873835 -47.56187057 77.70576096 C-48.54036263 76.72593978 -49.52032863 75.74758815 -50.50181961 74.77077103 C-51.87537073 73.40232882 -53.24178793 72.02673748 -54.60791016 70.65087891 C-55.38558746 69.87161041 -56.16326477 69.09234192 -56.96450806 68.28945923 C-60.85505276 63.91349325 -62.8260213 60.3014936 -62.49992371 54.43885803 C-61.91378771 51.57941674 -61.05619244 50.46925346 -59.0871582 48.34155273 C-58.44984772 47.6495578 -57.81253723 46.95756287 -57.15591431 46.24459839 C-53.14244642 42.06603548 -49.08194742 37.9398913 -44.98046875 33.84765625 C-44.03104843 32.89756065 -43.08177646 31.9473168 -42.13264465 30.99693298 C-40.16011503 29.02294123 -38.18581861 27.05073914 -36.21020508 25.07983398 C-33.67702339 22.552396 -31.14842172 20.0204305 -28.62108898 17.48714542 C-26.66955192 15.53200245 -24.71564907 13.57923782 -22.76101112 11.62719536 C-21.37368135 10.24085585 -19.98836335 8.85250409 -18.60307312 7.46412659 C-17.34585197 6.21163368 -17.34585197 6.21163368 -16.06323242 4.93383789 C-15.3248967 4.19629776 -14.58656097 3.45875763 -13.82585144 2.6988678 C-9.84576802 -1.00441025 -5.17914292 -0.59539753 0 0 Z " fill="#FEFEFE" transform="translate(77,79)"/>
</svg>
